PathFileType	4	(X/Y/Z)	/home/abdul/Desktop/myosuite/custom_workspace/IK/output/S19_12_3.trc
DataRate	CameraRate	NumFrames	NumMarkers	Units	OrigDataRate	OrigDataStartFrame	OrigNumFrames
200.0	200.0	55	3	mm	200.0	1298	1483
Frame#	Time	V_Shoulder			V_Elbow			V_Wrist		
		X1	Y1	Z1	X2	Y2	Z2	X3	Y3	Z3

1298	6.485	-109.97602218478335	674.8559388126178	314.5998070406674				-198.584598473977	295.6441890460967	32.93120552584452
1299	6.49	-110.1244727570877	675.0813180151872	314.56745796576115				-198.63567589129775	295.903804298987	32.7416778980424
1300	6.495	-110.27182491430234	675.306358899381	314.5361528841942				-198.6737678821514	296.1528457509974	32.563847991981085
1301	6.5	-110.41797647892263	675.5310975390729	314.5059443465014				-198.69954181767474	296.3913263414386	32.397439845766606
1302	6.505	-110.56282594387795	675.7555692547999	314.47688289078917				-198.71365673154494	296.6192789370789	32.24216126045147
1303	6.51	-110.70627259642451	675.979808470202	314.44901695368657				-198.7167623617541	296.8367560418228	32.09770507528568
1304	6.515	-110.84821664050817	676.203848570812	314.42239278717585				-198.7094982453243	297.0438294410863	31.9637504665922
1305	6.52	-110.98855931742393	676.4277217655143	314.39705438148513				-198.69249286629963	297.2405897834318	31.839964264658107
1306	6.525	-111.12720302460507	676.6514589509734	314.37304339420484				-198.66636285723462	297.4271461022165	31.726002283009695
1307	6.53	-111.26405143238212	676.8750895793373	314.3503990857702				-198.63171225428482	297.603625280178	31.621510654453253
1308	6.535	-111.39900959855906	677.0986415295109	314.3291582614288				-198.58913180588434	297.77017146004414	31.526127168312826
1309	6.54	-111.53198408066129	677.3221409822909	314.3093552197918				-198.53919833488243	297.926945404394	31.43948260337948
1310	6.545	-111.66288304571738	677.5456122996458	314.29102170804686				-198.4824741538896	298.0741238081314	31.361202051203318
1311	6.55	-111.79161637744431	677.7690779084206	314.2741868838866				-198.41950653346808	298.21189856704166	31.290906224506536
1312	6.555	-111.91809578071316	677.9925581887355	314.2588772841878				-198.35082722268328	298.3404760060057	31.22821274567203
1313	6.56	-112.04223488318023	678.2160713673392	314.2451168004524				-198.27695202141632	298.46007607052496	31.172737410464986
1314	6.565	-112.16394933397567	678.4396334161739	314.2329266610022				-198.19838040372244	298.57093148527906	31.124095422371866
1315	6.57	-112.2831568993502	678.6632579563951	314.2223254198971				-198.11559519140786	298.6732868834913	31.081902593190524
1316	6.575	-112.39977755518674	678.8869561680793	314.2133289525261				-198.02906227688578	298.76739791091154	31.0457765057737
1317	6.58	-112.51373357629234	679.1107367058485	314.20595045779976				-197.9392303942666	298.8535303082463	31.015337635113386
1318	6.585	-112.6249496223926	679.3346056206204	314.20020046685386				-197.84653093753388	298.931958975872	30.990210424253338
1319	6.59	-112.73335282075828	679.5585662876903	314.1960868581546				-197.75137782456062	299.00296702465596	30.970024311828393
1320	6.595	-112.83887284540019	679.782619341334	314.1936148788753				-197.6541674056266	299.0668448166855	30.954414708349876
1321	6.6	-112.94144199277655	680.0067626161081	314.19278717239894				-197.5552784150134	299.12388899966595	30.94302391868348
1322	6.605	-113.04099525396236	680.2309910950135	314.19360381178285				-197.4550719641743	299.1744015386928	30.93550200849764
1323	6.61	-113.13747038323784	680.4552968646733	314.1960623390032				-197.35389157490317	299.21868874903964	30.931507612793926
1324	6.615	-113.2308079630581	680.6796690776621	314.20015780978537				-197.25206325086543	299.25706033351844	30.930708684963857
1325	6.62	-113.32095146537347	680.9040939221052	314.20588284380636				-197.1498955857966	299.28982842787934	30.932783185147386
1326	6.625	-113.40784730927487	681.1285545986597	314.2132276800465				-197.04767990662936	299.31730665761023	30.937419706994195
1327	6.63	-113.49144491494343	681.3530313049641	314.2221802370497				-196.94569044977067	299.33980920938166	30.94431804224894
1328	6.635	-113.57169675389031	681.5775012276321	314.23272617784403				-196.84418456872345	299.357649920254	30.953189682892884
1329	6.64	-113.64855839547589	681.8019385418514	314.2448489792592				-196.74340297122677	299.3711413876301	30.963758260876467
1330	6.645	-113.72198854970316	682.0263144186248	314.25853000537126				-196.64356998407834	299.380594102787	30.975759925767868
1331	6.65	-113.79194910628388	682.2505970396813	314.27374858479214				-196.54489384380065	299.3863156106712	30.988943660920626
1332	6.655	-113.85840516998002	682.4747516200599	314.2904820915168				-196.44756701131877	299.3886096984779	31.003071539028078
1333	6.66	-113.92132509222687	682.6987404383573	314.30870602903155				-196.35176650883238	299.3877756153672	31.017918918182126
1334	6.665	-113.98068049904741	682.9225228746087	314.32839411738365				-196.25765427708657	299.38410732549806	31.033274579788092
1335	6.67	-114.0364463152705	683.1460554557547	314.349518382904				-196.16537755127416	299.3778927963814	31.04894080990556
1336	6.675	-114.08860078506852	683.3692919086258	314.3720492502758				-196.07506925383908	299.369413324372	31.064733425786635
1337	6.68	-114.13712548883234	683.5921832203622	314.3959556366347				-195.98684840249007	299.35894289893326	31.080481749567245
1338	6.685	-114.18200535640416	683.8146777061635	314.4212050473883				-195.90082053178156	299.34674760712176	31.096028531233987
1339	6.69	-114.22322867669023	684.0367210842472	314.4477636734391				-195.81707812666747	299.3330850795471	31.11122982313851
1340	6.695	-114.26078710367756	684.2582565578781	314.47559648949897				-195.73570106648876	299.3182039788772	31.125954808463185
1341	6.7	-114.29467565888073	684.4792249043048	314.50466735318065				-195.65675707791235	299.3023435317634	31.140085586156324
1342	6.705	-114.32489273024497	684.6995645704332	314.5349391045599				-195.58030219539705	299.2857331048785	31.15351691495222
1343	6.71	-114.35144006753421	684.9192117750362	314.5663736658989				-195.50638122782394	299.2685918255656	31.166155919171864
1344	6.715	-114.37432277423291	685.1381006172941	314.59893214123264				-195.4350282299884	299.2511282474193	31.177921759063786
1345	6.72	-114.39354929599114	685.3561631914317	314.6325749155216				-195.3662669777131	299.2335400609329	31.188745268492035
1346	6.725	-114.4091314056435	685.5733297072111	314.6672617530803				-195.3001114454018	299.2160138491713	31.198568562810852
1347	6.73	-114.42108418483241	685.7895286160132	314.7029518950017				-195.23656628491293	299.19872488825456	31.207344619782525
1348	6.735	-114.429426002267	686.0046867422367	314.7396041553023				-195.175627304691	299.1818369922702	31.215036836398163
1349	6.74	-114.43417848864901	686.2187294197179	314.77717701552325				-195.11728194814972	299.1655024020681	31.221618564450473
1350	6.745	-114.43536650829753	686.4315806328659	314.815628717533				-195.06150977035497	299.14986171723785	31.22707262768438
1351	6.75	-114.43301812750401	686.643163162196	314.85491735428656				-195.00828291210772	299.1350438704147	31.231390823315724
1352	6.755	-114.42716457964963	686.8533987339227	314.89500095830687				-194.95756657057586	299.1211661429214	31.234573410661596
